<?xml version="1.0" standalone="no"?>
<!DOCTYPE svg PUBLIC "-//W3C//DTD SVG 20010904//EN"
 "http://www.w3.org/TR/2001/REC-SVG-20010904/DTD/svg10.dtd">
<svg version="1.0" xmlns="http://www.w3.org/2000/svg"
 width="102.000000pt" height="102.000000pt" viewBox="0 0 102.000000 102.000000"
 preserveAspectRatio="xMidYMid meet">

<g transform="translate(0.000000,102.000000) scale(0.100000,-0.100000)"
fill="#000000" stroke="none">
<path d="M230 901 c-48 -15 -87 -40 -122 -79 -46 -51 -57 -71 -67 -127 -22
-119 51 -270 215 -445 60 -64 219 -206 249 -222 16 -10 207 153 285 242 136
157 189 252 197 354 13 159 -105 286 -265 286 -75 0 -116 -16 -171 -65 l-41
-38 -28 28 c-60 61 -172 90 -252 66z m103 -97 c18 -9 46 -26 62 -38 26 -19 42
-22 122 -21 69 0 96 5 110 17 18 16 97 58 109 58 4 0 3 -33 -1 -72 -4 -40 -8
-114 -8 -164 -2 -78 -5 -95 -27 -127 -81 -121 -232 -140 -337 -44 -57 52 -77
98 -68 157 8 54 8 62 -1 168 -4 45 -4 82 0 82 4 0 21 -7 39 -16z"/>
<path d="M650 720 c0 -5 5 -10 10 -10 6 0 10 5 10 10 0 6 -4 10 -10 10 -5 0
-10 -4 -10 -10z"/>
<path d="M404 596 c-7 -20 2 -46 16 -46 13 0 13 47 0 55 -6 3 -13 -1 -16 -9z"/>
<path d="M596 595 c-6 -18 2 -45 15 -45 12 0 12 47 0 54 -5 3 -11 -1 -15 -9z"/>
<path d="M490 502 c0 -4 5 -13 12 -20 14 -14 3 -28 -27 -35 -18 -4 -18 -5 2
-6 12 0 25 3 28 9 4 6 13 5 25 -2 15 -10 22 -10 31 -1 9 9 7 11 -8 7 -24 -7
-40 13 -24 29 18 18 13 27 -14 27 -14 0 -25 -4 -25 -8z"/>
</g>
</svg>
